REM DIRINDEX 1\2,1\3,1\4,1\5\6,1\5\7,1\8
REM DIRNAME folder01,folder02,folder03,folder04,folder05,folder06,folder07,folder08
TITLE ""
FILE "093 Åy093ÅzUnit5 (1057 consensus_1068 capability).mp3" MP3
  TRACK 01 AUDIO
    TITLE "0:"
    INDEX 01 00:00:00
  TRACK 02 AUDIO
    TITLE "2:cjc115_3612"
    INDEX 01 00:00:07
  TRACK 03 AUDIO
    TITLE "0:"
    INDEX 01 00:01:42
  TRACK 04 AUDIO
    TITLE "3:cjc115_3613"
    INDEX 01 00:01:50
  TRACK 05 AUDIO
    TITLE "0:"
    INDEX 01 00:04:25
  TRACK 06 AUDIO
    TITLE "4:cjc115_3614"
    INDEX 01 00:04:38
  TRACK 07 AUDIO
    TITLE "0:"
    INDEX 01 00:08:11
  TRACK 08 AUDIO
    TITLE "2:cjc115_3615"
    INDEX 01 00:09:20
  TRACK 09 AUDIO
    TITLE "0:"
    INDEX 01 00:10:45
  TRACK 10 AUDIO
    TITLE "3:cjc115_3616"
    INDEX 01 00:10:47
  TRACK 11 AUDIO
    TITLE "0:"
    INDEX 01 00:12:03
  TRACK 12 AUDIO
    TITLE "4:cjc115_3617"
    INDEX 01 00:12:12
  TRACK 13 AUDIO
    TITLE "0:"
    INDEX 01 00:14:23
  TRACK 14 AUDIO
    TITLE "2:cjc115_3618"
    INDEX 01 00:15:30
  TRACK 15 AUDIO
    TITLE "0:"
    INDEX 01 00:16:34
  TRACK 16 AUDIO
    TITLE "3:cjc115_3619"
    INDEX 01 00:16:48
  TRACK 17 AUDIO
    TITLE "0:"
    INDEX 01 00:18:50
  TRACK 18 AUDIO
    TITLE "4:cjc115_3620"
    INDEX 01 00:18:56
  TRACK 19 AUDIO
    TITLE "0:"
    INDEX 01 00:22:11
  TRACK 20 AUDIO
    TITLE "2:cjc115_3621"
    INDEX 01 00:23:20
  TRACK 21 AUDIO
    TITLE "0:"
    INDEX 01 00:24:35
  TRACK 22 AUDIO
    TITLE "3:cjc115_3622"
    INDEX 01 00:24:43
  TRACK 23 AUDIO
    TITLE "0:"
    INDEX 01 00:27:43
  TRACK 24 AUDIO
    TITLE "4:cjc115_3623"
    INDEX 01 00:27:53
  TRACK 25 AUDIO
    TITLE "0:"
    INDEX 01 00:30:55
  TRACK 26 AUDIO
    TITLE "2:cjc115_3624"
    INDEX 01 00:31:65
  TRACK 27 AUDIO
    TITLE "0:"
    INDEX 01 00:32:74
  TRACK 28 AUDIO
    TITLE "3:cjc115_3625"
    INDEX 01 00:33:11
  TRACK 29 AUDIO
    TITLE "0:"
    INDEX 01 00:34:14
  TRACK 30 AUDIO
    TITLE "4:cjc115_3626"
    INDEX 01 00:34:26
  TRACK 31 AUDIO
    TITLE "0:"
    INDEX 01 00:37:30
  TRACK 32 AUDIO
    TITLE "2:cjc115_3627"
    INDEX 01 00:38:37
  TRACK 33 AUDIO
    TITLE "0:"
    INDEX 01 00:39:58
  TRACK 34 AUDIO
    TITLE "3:cjc115_3628"
    INDEX 01 00:39:64
  TRACK 35 AUDIO
    TITLE "0:"
    INDEX 01 00:41:61
  TRACK 36 AUDIO
    TITLE "4:cjc115_3629"
    INDEX 01 00:41:63
  TRACK 37 AUDIO
    TITLE "0:"
    INDEX 01 00:45:57
  TRACK 38 AUDIO
    TITLE "2:cjc115_3630"
    INDEX 01 00:46:66
  TRACK 39 AUDIO
    TITLE "0:"
    INDEX 01 00:48:12
  TRACK 40 AUDIO
    TITLE "3:cjc115_3631"
    INDEX 01 00:48:22
  TRACK 41 AUDIO
    TITLE "0:"
    INDEX 01 00:49:55
  TRACK 42 AUDIO
    TITLE "4:cjc115_3632"
    INDEX 01 00:49:61
  TRACK 43 AUDIO
    TITLE "0:"
    INDEX 01 00:52:45
  TRACK 44 AUDIO
    TITLE "2:cjc115_3633"
    INDEX 01 00:53:53
  TRACK 45 AUDIO
    TITLE "0:"
    INDEX 01 00:54:60
  TRACK 46 AUDIO
    TITLE "3:cjc115_3634"
    INDEX 01 00:54:70
  TRACK 47 AUDIO
    TITLE "0:"
    INDEX 01 00:56:39
  TRACK 48 AUDIO
    TITLE "4:cjc115_3635"
    INDEX 01 00:56:45
  TRACK 49 AUDIO
    TITLE "0:"
    INDEX 01 01:01:03
  TRACK 50 AUDIO
    TITLE "2:cjc115_3636"
    INDEX 01 01:02:12
  TRACK 51 AUDIO
    TITLE "0:"
    INDEX 01 01:03:31
  TRACK 52 AUDIO
    TITLE "3:cjc115_3637"
    INDEX 01 01:03:41
  TRACK 53 AUDIO
    TITLE "0:"
    INDEX 01 01:04:48
  TRACK 54 AUDIO
    TITLE "4:cjc115_3638"
    INDEX 01 01:04:56
  TRACK 55 AUDIO
    TITLE "0:"
    INDEX 01 01:08:13
  TRACK 56 AUDIO
    TITLE "2:cjc115_3639"
    INDEX 01 01:09:20
  TRACK 57 AUDIO
    TITLE "0:"
    INDEX 01 01:10:35
  TRACK 58 AUDIO
    TITLE "3:cjc115_3640"
    INDEX 01 01:10:45
  TRACK 59 AUDIO
    TITLE "0:"
    INDEX 01 01:13:32
  TRACK 60 AUDIO
    TITLE "4:cjc115_3641"
    INDEX 01 01:13:44
  TRACK 61 AUDIO
    TITLE "0:"
    INDEX 01 01:18:74
  TRACK 62 AUDIO
    TITLE "2:cjc115_3642"
    INDEX 01 01:20:08
  TRACK 63 AUDIO
    TITLE "0:"
    INDEX 01 01:21:25
  TRACK 64 AUDIO
    TITLE "3:cjc115_3643"
    INDEX 01 01:21:35
  TRACK 65 AUDIO
    TITLE "0:"
    INDEX 01 01:22:56
  TRACK 66 AUDIO
    TITLE "4:cjc115_3644"
    INDEX 01 01:22:60
  TRACK 67 AUDIO
    TITLE "0:"
    INDEX 01 01:26:38
  TRACK 68 AUDIO
    TITLE "2:cjc115_3645"
    INDEX 01 01:27:46
  TRACK 69 AUDIO
    TITLE "0:"
    INDEX 01 01:28:69
  TRACK 70 AUDIO
    TITLE "3:cjc115_3646"
    INDEX 01 01:29:01
  TRACK 71 AUDIO
    TITLE "0:"
    INDEX 01 01:31:00
  TRACK 72 AUDIO
    TITLE "4:cjc115_3647"
    INDEX 01 01:31:02
  TRACK 73 AUDIO
    TITLE "0:"
    INDEX 01 01:35:53
